<?xml version="1.0" encoding="UTF-8" standalone="no"?>
<svg width="100px" height="100px" viewBox="0 0 100 100" version="1.1" xmlns="http://www.w3.org/2000/svg" xmlns:xlink="http://www.w3.org/1999/xlink">
    <!-- Generator: Sketch 39.1 (31720) - http://www.bohemiancoding.com/sketch -->
    <title>noun_161671_cc</title>
    <desc>Created with Sketch.</desc>
    <defs></defs>
    <g id="Page-1" stroke="none" stroke-width="1" fill="none" fill-rule="evenodd">
        <g id="noun_161671_cc" fill="#2bba87">
            <path d="M50,0 C22.386,0 0,22.386 0,50 C0,77.614 22.386,100 50,100 C77.614,100 100,77.614 100,50 C100,22.386 77.614,0 50,0 L50,0 Z M63,42.486 L63,46.464 L63,55.991 C63,57.421 62.348,58.523 61.251,59.394 C59.534,60.759 57.615,61.099 55.537,60.474 C53.86,59.97 52.959,58.7 53,57.332 C53.022,56.579 53.331,55.798 53.952,55.097 C54.009,55.034 54.068,54.971 54.13,54.909 C55.366,53.657 56.897,53.056 58.664,53.072 C59.99,53.082 59.992,53.072 59.993,51.744 C59.993,48.719 59.993,45.701 59.99,42.677 C59.987,41.808 59.91,41.739 59.062,41.922 C57.195,42.322 55.329,42.776 53.453,43.156 C53.381,43.171 53.308,43.184 53.237,43.198 C51.473,43.55 49.693,43.845 47.929,44.176 C46.99,44.352 46.972,44.365 46.976,45.342 C46.988,47.039 47.052,48.738 47.044,50.432 C47.03,53.477 47.014,56.517 46.953,59.563 C46.944,59.959 46.877,60.322 46.762,60.655 C46.417,61.655 45.642,62.394 44.71,63.025 C43.707,63.702 42.413,64.024 41.169,63.999 C40.135,63.978 39.135,63.716 38.365,63.217 C36.751,62.169 36.517,59.966 37.869,58.437 C39.185,56.939 40.878,56.259 42.856,56.259 C43.93,56.259 43.947,56.25 43.947,55.202 C43.953,50.414 43.953,45.624 43.962,40.834 C43.964,39.786 43.971,39.791 44.966,39.589 C50.246,38.519 55.526,37.447 60.802,36.372 C61.279,36.272 61.742,36.147 62.218,36.038 C62.723,35.921 62.958,36.082 63.005,36.521 C63.012,36.584 63.015,36.653 63.014,36.726 C62.992,38.646 63,40.566 63,42.486 L63,42.486 Z" id="Shape"></path>
        </g>
    </g>
</svg>
