<?xml version="1.0" encoding="UTF-8" standalone="no"?>
<svg width="126px" height="123px" viewBox="0 0 126 123" version="1.1" xmlns="http://www.w3.org/2000/svg" xmlns:xlink="http://www.w3.org/1999/xlink">
    <!-- Generator: Sketch 39.1 (31720) - http://www.bohemiancoding.com/sketch -->
    <title>Tickets</title>
    <desc>Created with Sketch.</desc>
    <defs></defs>
    <g id="Page-1" stroke="none" stroke-width="1" fill="none" fill-rule="evenodd">
        <g id="Tickets" transform="translate(-1.000000, -1.000000)">
            <g id="Ticket" transform="translate(78.055024, 75.025586) rotate(-45.000000) translate(-78.055024, -75.025586) translate(28.055024, 49.025586)">
                <g id="Group" transform="translate(-0.000000, -0.000000)" fill="#219169">
                    <path d="M34.4017659,7.833 L84.27,7.833 C86.477,7.833 88.27,9.628 88.27,11.833 L88.27,38.916 C88.27,41.122 86.477,42.916 84.27,42.916 L15.73,42.916 C13.524,42.916 11.73,41.122 11.73,38.916 L11.73,20.4001651 L34.4017659,7.833 Z M50,13 C42.82036,13 37,18.82036 37,26 C37,33.17964 42.82036,39 50,39 C57.17964,39 63,33.17964 63,26 C63,18.82036 57.17964,13 50,13 Z" id="Combined-Shape"></path>
                    <path d="M48.3863787,8.52651283e-14 L92.882,8.52651283e-14 C94.064,3.321 96.686,5.95 100,7.145 L100,9.139 C98.846,9.496 98,10.561 98,11.832 C98,13.105 98.846,14.169 100,14.527 L100,16.138 C98.846,16.495 98,17.56 98,18.832 C98,20.105 98.846,21.169 100,21.526 L100,23.137 C98.846,23.494 98,24.559 98,25.831 C98,27.104 98.846,28.168 100,28.524 L100,30.135 C98.846,30.492 98,31.557 98,32.829 C98,34.101 98.846,35.166 100,35.523 L100,37.133 C98.846,37.49 98,38.556 98,39.827 C98,41.1 98.846,42.164 100,42.52 L100,44.639 C96.699,45.83 94.085,48.441 92.896,51.743 L7.145,51.743 C5.95,48.428 3.321,45.809 -1.42108547e-14,44.625 L-1.42108547e-14,42.521 C1.155,42.164 2,41.099 2,39.827 C2,38.555 1.155,37.49 -1.42108547e-14,37.133 L-1.42108547e-14,35.522 C1.155,35.166 2,34.102 2,32.829 C2,31.558 1.155,30.492 -1.42108547e-14,30.135 L-1.42108547e-14,28.525 C1.155,28.168 2,27.103 2,25.831 C2,24.559 1.155,23.495 -1.42108547e-14,23.137 L-1.42108547e-14,21.526 C1.155,21.169 2,20.105 2,18.832 C2,17.56 1.155,16.496 -1.42108547e-14,16.138 L-1.42108547e-14,14.527 C1.155,14.17 2,13.106 2,11.833 C2,10.561 1.155,9.497 -1.42108547e-14,9.139 L-1.42108547e-14,7.16 C0.35863096,7.0322478 0.709190327,6.88773953 1.05074421,6.72740907 L9.32394594,21.6526601 L9.73,21.4275806 L9.73,39.416 C9.73,42.725 12.421,45.416 15.73,45.416 L84.27,45.416 C87.58,45.416 90.27,42.725 90.27,39.416 L90.27,39.416 L90.27,12.333 C90.27,9.024 87.58,6.333 84.27,6.333 L36.9613443,6.333 L48.3863787,8.79296636e-14 Z" id="Combined-Shape"></path>
                </g>
                <path d="M53.38,24.04636 L53.38,25.08064 L53.38,27.55766 C53.38,27.92946 53.21048,28.21598 52.92526,28.44244 C52.47884,28.79734 51.9799,28.88574 51.43962,28.72324 C51.0036,28.5922 50.76934,28.262 50.78,27.90632 C50.78572,27.71054 50.86606,27.50748 51.02752,27.32522 C51.04234,27.30884 51.05768,27.29246 51.0738,27.27634 C51.39516,26.95082 51.79322,26.79456 52.25264,26.79872 C52.5974,26.80132 52.59792,26.79872 52.59818,26.45344 C52.59818,25.66694 52.59818,24.88226 52.5974,24.09602 C52.59662,23.87008 52.5766,23.85214 52.35612,23.89972 C51.8707,24.00372 51.38554,24.12176 50.89778,24.22056 C50.87906,24.22446 50.86008,24.22784 50.84162,24.23148 C50.38298,24.323 49.92018,24.3997 49.46154,24.48576 C49.2174,24.53152 49.21272,24.5349 49.21376,24.78892 C49.21688,25.23014 49.23352,25.67188 49.23144,26.11232 C49.2278,26.90402 49.22364,27.69442 49.20778,28.48638 C49.20544,28.58934 49.18802,28.68372 49.15812,28.7703 C49.06842,29.0303 48.86692,29.22244 48.6246,29.3865 C48.36382,29.56252 48.02738,29.64624 47.70394,29.63974 C47.4351,29.63428 47.1751,29.56616 46.9749,29.43642 C46.55526,29.16394 46.49442,28.59116 46.84594,28.19362 C47.1881,27.80414 47.62828,27.62734 48.14256,27.62734 C48.4218,27.62734 48.42622,27.625 48.42622,27.35252 C48.42778,26.10764 48.42778,24.86224 48.43012,23.61684 C48.43064,23.34436 48.43246,23.34566 48.69116,23.29314 C50.06396,23.01494 51.43676,22.73622 52.80852,22.45672 C52.93254,22.43072 53.05292,22.39822 53.17668,22.36988 C53.30798,22.33946 53.36908,22.38132 53.3813,22.49546 C53.38312,22.51184 53.3839,22.52978 53.38364,22.54876 C53.37792,23.04796 53.38,23.54716 53.38,24.04636 L53.38,24.04636 L53.38,24.04636 Z" id="Shape-path" fill="#219169"></path>
            </g>
            <g id="Ticket-Copy" transform="translate(38.055024, 55.025586) rotate(-75.000000) translate(-38.055024, -55.025586) translate(-11.944976, 29.025586)" fill="#2BBA87">
                <path d="M84.27,7.833 L15.73,7.833 C13.524,7.833 11.73,9.627 11.73,11.833 L11.73,38.916 C11.73,41.122 13.524,42.916 15.73,42.916 L84.27,42.916 C86.477,42.916 88.27,41.122 88.27,38.916 L88.27,11.833 C88.27,9.628 86.477,7.833 84.27,7.833 Z M50,13 C42.82036,13 37,18.82036 37,26 C37,33.17964 42.82036,39 50,39 C57.17964,39 63,33.17964 63,26 C63,18.82036 57.17964,13 50,13 Z" id="Combined-Shape"></path>
                <path d="M53.38,24.04636 L53.38,25.08064 L53.38,27.55766 C53.38,27.92946 53.21048,28.21598 52.92526,28.44244 C52.47884,28.79734 51.9799,28.88574 51.43962,28.72324 C51.0036,28.5922 50.76934,28.262 50.78,27.90632 C50.78572,27.71054 50.86606,27.50748 51.02752,27.32522 C51.04234,27.30884 51.05768,27.29246 51.0738,27.27634 C51.39516,26.95082 51.79322,26.79456 52.25264,26.79872 C52.5974,26.80132 52.59792,26.79872 52.59818,26.45344 C52.59818,25.66694 52.59818,24.88226 52.5974,24.09602 C52.59662,23.87008 52.5766,23.85214 52.35612,23.89972 C51.8707,24.00372 51.38554,24.12176 50.89778,24.22056 C50.87906,24.22446 50.86008,24.22784 50.84162,24.23148 C50.38298,24.323 49.92018,24.3997 49.46154,24.48576 C49.2174,24.53152 49.21272,24.5349 49.21376,24.78892 C49.21688,25.23014 49.23352,25.67188 49.23144,26.11232 C49.2278,26.90402 49.22364,27.69442 49.20778,28.48638 C49.20544,28.58934 49.18802,28.68372 49.15812,28.7703 C49.06842,29.0303 48.86692,29.22244 48.6246,29.3865 C48.36382,29.56252 48.02738,29.64624 47.70394,29.63974 C47.4351,29.63428 47.1751,29.56616 46.9749,29.43642 C46.55526,29.16394 46.49442,28.59116 46.84594,28.19362 C47.1881,27.80414 47.62828,27.62734 48.14256,27.62734 C48.4218,27.62734 48.42622,27.625 48.42622,27.35252 C48.42778,26.10764 48.42778,24.86224 48.43012,23.61684 C48.43064,23.34436 48.43246,23.34566 48.69116,23.29314 C50.06396,23.01494 51.43676,22.73622 52.80852,22.45672 C52.93254,22.43072 53.05292,22.39822 53.17668,22.36988 C53.30798,22.33946 53.36908,22.38132 53.3813,22.49546 C53.38312,22.51184 53.3839,22.52978 53.38364,22.54876 C53.37792,23.04796 53.38,23.54716 53.38,24.04636 L53.38,24.04636 L53.38,24.04636 Z" id="Shape-path"></path>
                <path d="M100,9.139 L100,7.145 C96.686,5.95 94.064,3.321 92.882,0 L7.16,0 C5.972,3.335 3.335,5.972 0,7.16 L0,9.139 C1.155,9.497 2,10.561 2,11.833 C2,13.106 1.155,14.17 0,14.527 L0,16.138 C1.155,16.496 2,17.56 2,18.832 C2,20.105 1.155,21.169 0,21.526 L0,23.137 C1.155,23.495 2,24.559 2,25.831 C2,27.103 1.155,28.168 0,28.525 L0,30.135 C1.155,30.492 2,31.558 2,32.829 C2,34.102 1.155,35.166 0,35.522 L0,37.133 C1.155,37.49 2,38.555 2,39.827 C2,41.099 1.155,42.164 0,42.521 L0,44.625 C3.321,45.809 5.95,48.428 7.145,51.743 L92.896,51.743 C94.085,48.441 96.699,45.83 100,44.639 L100,42.52 C98.846,42.164 98,41.1 98,39.827 C98,38.556 98.846,37.49 100,37.133 L100,35.523 C98.846,35.166 98,34.101 98,32.829 C98,31.557 98.846,30.492 100,30.135 L100,28.524 C98.846,28.168 98,27.104 98,25.831 C98,24.559 98.846,23.494 100,23.137 L100,21.526 C98.846,21.169 98,20.105 98,18.832 C98,17.56 98.846,16.495 100,16.138 L100,14.527 C98.846,14.169 98,13.105 98,11.832 C98,10.561 98.846,9.496 100,9.139 L100,9.139 Z M90.27,39.416 C90.27,42.725 87.58,45.416 84.27,45.416 L15.73,45.416 C12.421,45.416 9.73,42.725 9.73,39.416 L9.73,12.333 C9.73,9.024 12.421,6.333 15.73,6.333 L84.27,6.333 C87.58,6.333 90.27,9.024 90.27,12.333 L90.27,39.416 L90.27,39.416 Z" id="Shape"></path>
            </g>
        </g>
    </g>
</svg>
